<svg height="512pt" viewBox="0 -6 512 512" width="512pt" xmlns="http://www.w3.org/2000/svg"><path d="m391.769531 261.304688h68.671875c9.476563 0 17.1875-7.710938 17.1875-17.1875v-180.070313c0-9.476563-7.710937-17.1875-17.1875-17.1875h-408.882812c-9.476563 0-17.1875 7.710937-17.1875 17.1875v180.070313c0 9.476562 7.710937 17.1875 17.1875 17.1875h309.429687c4.25 0 7.695313-3.445313 7.695313-7.695313s-3.445313-7.695313-7.695313-7.695313h-309.429687c-.988282 0-1.796875-.804687-1.796875-1.796874v-180.070313c0-.992187.808593-1.796875 1.796875-1.796875h408.882812c.988282 0 1.796875.804688 1.796875 1.796875v180.070313c0 .992187-.808593 1.796874-1.796875 1.796874h-68.671875c-4.253906 0-7.695312 3.445313-7.695312 7.695313s3.445312 7.695313 7.695312 7.695313zm0 0"/><path d="m485.804688 0h-169.339844c-4.246094 0-7.695313 3.449219-7.695313 7.695312 0 4.246094 3.449219 7.695313 7.695313 7.695313h169.339844c5.960937 0 10.804687 4.84375 10.804687 10.804687v266.84375c-9.746094 0-468.785156 0-481.21875 0v-62.894531c0-4.25-3.449219-7.695312-7.695313-7.695312-4.246093 0-7.695312 3.445312-7.695312 7.695312v116.261719c0 14.445312 11.75 26.195312 26.195312 26.195312h183.859376l-14.644532 72.878907h-29.960937c-10.882813 0-19.75 8.867187-19.75 19.753906v15.390625c0 10.882812 8.867187 19.75 19.75 19.75h181.101562c10.882813 0 19.75-8.867188 19.75-19.75v-15.390625c0-10.886719-8.867187-19.753906-19.75-19.753906h-29.960937l-14.644532-72.878907h183.859376c14.445312 0 26.195312-11.75 26.195312-26.195312 0-6.203125 0-317.019531 0-320.210938 0-14.445312-11.75-26.195312-26.195312-26.195312zm-139.253907 460.871094c2.398438 0 4.359375 1.960937 4.359375 4.363281v15.390625c0 2.398438-1.960937 4.359375-4.359375 4.359375h-181.101562c-2.398438 0-4.359375-1.960937-4.359375-4.359375v-15.390625c0-2.402344 1.960937-4.363281 4.359375-4.363281zm-135.441406-15.390625 14.644531-72.878907h60.492188l14.644531 72.878907zm285.5-99.074219c0 5.960938-4.84375 10.804688-10.804687 10.804688-4.648438 0-449.328126 0-459.609376 0-5.960937 0-10.804687-4.84375-10.804687-10.804688v-37.976562h481.21875zm0 0"/><path d="m7.695312 207.058594c4.246094 0 7.695313-3.449219 7.695313-7.695313v-173.167969c0-5.960937 4.84375-10.804687 10.804687-10.804687h259.488282c4.246094 0 7.695312-3.449219 7.695312-7.695313 0-4.246093-3.449218-7.695312-7.695312-7.695312h-259.488282c-14.445312 0-26.195312 11.75-26.195312 26.195312v173.167969c0 4.246094 3.449219 7.695313 7.695312 7.695313zm0 0"/><path d="m458.902344 352.953125c11.101562 0 20.136718-9.03125 20.136718-20.132813 0-11.105468-9.035156-20.136718-20.136718-20.136718-11.101563 0-20.136719 9.03125-20.136719 20.136718 0 11.101563 9.035156 20.132813 20.136719 20.132813zm0-24.878906c2.617187 0 4.746094 2.128906 4.746094 4.746093 0 2.613282-2.128907 4.742188-4.746094 4.742188-2.617188 0-4.746094-2.128906-4.746094-4.742188 0-2.617187 2.128906-4.746093 4.746094-4.746093zm0 0"/><path d="m406.058594 352.953125c11.105468 0 20.136718-9.03125 20.136718-20.132813 0-11.105468-9.03125-20.136718-20.136718-20.136718-11.101563 0-20.132813 9.03125-20.132813 20.136718 0 11.101563 9.03125 20.132813 20.132813 20.132813zm0-24.878906c2.617187 0 4.746094 2.128906 4.746094 4.746093 0 2.613282-2.128907 4.742188-4.746094 4.742188-2.613282 0-4.742188-2.128906-4.742188-4.742188 0-2.617187 2.128906-4.746093 4.742188-4.746093zm0 0"/><path d="m90.683594 192.953125c-14.34375 0-16.257813-10.988281-16.414063-15.714844-.085937-2.300781-1.332031-6.160156-8.710937-6.160156-6.398438 0-9.007813 2.480469-9.007813 8.5625 0 17.5 13.957031 29.257813 34.726563 29.257813 12.632812 0 33.835937-4.417969 33.835937-33.984376v-70.796874c0-4.066407-4.011719-6.199219-7.972656-6.199219h-26.015625c-4.28125 0-6.195312 3.929687-6.195312 7.824219 0 4.707031 2.605468 8.121093 6.195312 8.121093h16.269531v61.050781c0 11.96875-5.625 18.039063-16.710937 18.039063zm0 0"/><path d="m133.847656 131.902344v43.011718c0 21.914063 12.125 33.984376 34.132813 33.984376 22.109375 0 34.28125-12.070313 34.28125-33.984376v-43.011718c0-21.914063-12.171875-33.984375-34.28125-33.984375-22.007813 0-34.132813 12.070312-34.132813 33.984375zm50.695313 0v43.011718c0 11.800782-5.726563 18.039063-16.5625 18.039063-10.890625 0-16.410157-6.070313-16.410157-18.039063v-43.011718c0-11.96875 5.519532-18.039063 16.410157-18.039063 10.835937 0 16.5625 6.238281 16.5625 18.039063zm0 0"/><path d="m277.050781 124.515625c0-17.898437-10.101562-26.59375-30.882812-26.59375h-26.898438c-3.960937 0-7.972656 2.128906-7.972656 6.199219v97.839844c0 3.449218 3.429687 6.050781 7.972656 6.050781h30.003907c13.882812 0 30.4375-5.5625 30.4375-32.0625v-2.808594c0-12.792969-4.164063-20.328125-13.828126-24.773437 7.128907-4.199219 11.167969-12.746094 11.167969-23.851563zm-48.183593-10.652344h16.269531c9.417969 0 14.195312 4.429688 14.195312 13.164063 0 9.550781-4.546875 14.195312-13.902343 14.195312h-16.5625zm33.125 60.902344c0 11.476563-5.273438 17.300781-15.675782 17.300781h-17.449218v-36.375h17.449218c10.839844 0 15.675782 5.152344 15.675782 16.707032zm0 0"/><path d="m319.300781 104.808594c-14.222656 14.222656-14.226562 37.234375 0 51.460937 22.695313 22.695313 62.117188 6.832031 62.117188-25.730469 0-32.535156-39.40625-48.441406-62.117188-25.730468zm40.578125 40.578125c-3.96875 3.964843-9.238281 6.152343-14.847656 6.152343-18.496094 0-28.152344-22.542968-14.847656-35.847656 3.964844-3.964844 9.238281-6.152344 14.847656-6.152344 18.699219 0 27.988281 22.707032 14.847656 35.847657zm0 0"/><path d="m386.402344 203.167969 30.027344 30.023437c8.636718 8.636719 22.617187 8.640625 31.253906 0 8.636718-8.636718 8.636718-22.613281 0-31.25l-30.015625-30.015625c-3.765625-3.78125-9.832031-3.71875-13.535157-.011719l-3.398437 3.398438-6.730469-6.699219c31.769532-40.703125 2.398438-100.113281-48.972656-100.113281-55.484375 0-82.578125 67.203125-43.871094 105.910156 22.5 22.5 57.71875 24.027344 81.960938 5.089844l6.726562 6.695312-3.433594 3.433594c-3.738281 3.722656-3.761718 9.777344-.011718 13.539063zm24.492187-16.253907 25.90625 25.90625c2.625 2.628907 2.621094 6.871094 0 9.488282-2.621093 2.621094-6.867187 2.621094-9.488281 0l-25.90625-25.90625zm-65.863281-9.726562c-41.136719 0-62.507812-50.113281-32.984375-79.632812 18.226563-18.230469 47.738281-18.234376 65.96875 0h.003906c29.089844 29.09375 8.75 79.632812-32.988281 79.632812zm0 0"/></svg>